<svg width="24" height="24" viewBox="0 0 24 24" fill="none" xmlns="http://www.w3.org/2000/svg">
<path d="M15.707 5.293L12.707 2.293C12.6142 2.20012 12.5039 2.12644 12.3826 2.07617C12.2613 2.0259 12.1313 2.00002 12 2.00002C11.8686 2.00002 11.7386 2.0259 11.6173 2.07617C11.496 2.12644 11.3858 2.20012 11.2929 2.293L8.29293 5.293C8.10737 5.48092 8.00369 5.73462 8.00452 5.99871C8.00536 6.26281 8.11064 6.51585 8.29739 6.70259C8.48414 6.88933 8.73719 6.99461 9.00128 6.99543C9.26538 6.99626 9.51908 6.89257 9.70699 6.707L11 5.41406V17C11 17.2652 11.1053 17.5196 11.2929 17.7071C11.4804 17.8946 11.7348 18 12 18C12.2652 18 12.5196 17.8946 12.7071 17.7071C12.8946 17.5196 13 17.2652 13 17V5.41406L14.293 6.70706C14.4809 6.89262 14.7346 6.9963 14.9987 6.99546C15.2628 6.99463 15.5158 6.88934 15.7026 6.70259C15.8893 6.51584 15.9946 6.2628 15.9954 5.9987C15.9962 5.73461 15.8926 5.48091 15.707 5.293V5.293Z" fill="#6563FF"/>
<path d="M18 9H13V17C13 17.2652 12.8946 17.5196 12.7071 17.7071C12.5196 17.8946 12.2652 18 12 18C11.7348 18 11.4804 17.8946 11.2929 17.7071C11.1054 17.5196 11 17.2652 11 17V9H6C5.20462 9.00087 4.44206 9.31722 3.87964 9.87964C3.31722 10.4421 3.00087 11.2046 3 12V19C3.00087 19.7954 3.31722 20.5579 3.87964 21.1204C4.44206 21.6828 5.20462 21.9991 6 22H18C18.7954 21.9991 19.5579 21.6828 20.1204 21.1204C20.6828 20.5579 20.9991 19.7954 21 19V12C20.9991 11.2046 20.6828 10.4421 20.1204 9.87964C19.5579 9.31722 18.7954 9.00087 18 9Z" fill="#A2A1FF"/>
</svg>
